<?xml version="1.0" encoding="UTF-8"?>
<svg xmlns="http://www.w3.org/2000/svg" xmlns:xlink="http://www.w3.org/1999/xlink" width="50px" height="50px" viewBox="0 0 50 50" version="1.1">
<g id="surface1">
<path style="fill:none;stroke-width:1.5;stroke-linecap:round;stroke-linejoin:round;stroke:rgb(0%,0%,0%);stroke-opacity:1;stroke-miterlimit:4;" d="M 15.501953 5 L 9.496094 5 C 7.292969 5 5.5 6.792969 5.5 8.996094 L 5.5 15.001953 C 5.5 17.207032 7.292969 19 9.496094 19 L 15.501953 19 C 17.707032 19 19.5 17.207032 19.5 15.001953 L 19.5 8.996094 C 19.5 6.792969 17.707032 5 15.501953 5 Z M 15.501953 5 " transform="matrix(2,0,0,2,0,1)"/>
<path style="fill:none;stroke-width:1.5;stroke-linecap:round;stroke-linejoin:round;stroke:rgb(0%,0%,0%);stroke-opacity:1;stroke-miterlimit:4;" d="M 12.5 15.001953 C 10.845703 15.001953 9.496094 13.654297 9.496094 12 C 9.496094 10.345703 10.845703 8.996094 12.5 8.996094 C 14.154297 8.996094 15.501953 10.345703 15.501953 12 C 15.501953 12.792969 15.185547 13.556641 14.623047 14.123047 C 14.056641 14.685547 13.292969 15.001953 12.5 15.001953 Z M 12.5 15.001953 " transform="matrix(2,0,0,2,0,1)"/>
<path style=" stroke:none;fill-rule:nonzero;fill:rgb(0%,0%,0%);fill-opacity:1;" d="M 31.003906 17.003906 C 31.003906 15.894531 31.898438 15.003906 32.996094 15.003906 C 34.105469 15.003906 34.996094 15.894531 34.996094 17.003906 C 34.996094 18.101562 34.105469 18.992188 32.996094 18.992188 C 31.898438 18.992188 31.003906 18.101562 31.003906 17.003906 Z M 31.003906 17.003906 "/>
<path style="fill:none;stroke-width:1;stroke-linecap:round;stroke-linejoin:miter;stroke:rgb(0%,0%,0%);stroke-opacity:1;stroke-miterlimit:4;" d="M 16.498047 8.498047 C 16.779297 8.498047 16.998047 8.722656 16.998047 8.998047 C 16.998047 9.279297 16.779297 9.498047 16.498047 9.498047 C 16.222657 9.498047 15.998047 9.279297 15.998047 8.998047 C 15.998047 8.722656 16.222657 8.498047 16.498047 8.498047 Z M 16.498047 8.498047 " transform="matrix(0.000000000000000122,-2,2,0.000000000000000122,15.000001,50)"/>
</g>
</svg>
